<svg width="58" height="58" viewBox="0 0 58 58" fill="none" xmlns="http://www.w3.org/2000/svg">
<g filter="url(#filter0_d_24747_543)">
<rect x="4" y="2" width="50" height="50" fill="white"/>
</g>
<path d="M25.4643 25.0714H26.6786M30.3214 29.9286H31.5357M31.5357 24.4643L25.4643 30.5357M27.6518 19.3513L26.2808 20.7223C26.0558 20.9473 25.7507 21.0737 25.4326 21.0737H23.2732C22.6107 21.0737 22.0737 21.6107 22.0737 22.2732V24.4326C22.0737 24.7507 21.9473 25.0558 21.7223 25.2808L20.3514 26.6518C19.8829 27.1202 19.8829 27.8798 20.3513 28.3482L21.7223 29.7192C21.9473 29.9442 22.0737 30.2493 22.0737 30.5674V32.7268C22.0737 33.3893 22.6107 33.9263 23.2732 33.9263H25.4326C25.7507 33.9263 26.0558 34.0527 26.2808 34.2777L27.6518 35.6486C28.1202 36.1171 28.8798 36.1171 29.3482 35.6486L30.7192 34.2777C30.9442 34.0527 31.2493 33.9263 31.5674 33.9263H33.7268C34.3893 33.9263 34.9263 33.3893 34.9263 32.7268V30.5674C34.9263 30.2493 35.0527 29.9442 35.2777 29.7192L36.6486 28.3482C37.1171 27.8798 37.1171 27.1202 36.6486 26.6518L35.2777 25.2808C35.0527 25.0558 34.9263 24.7507 34.9263 24.4326V22.2732C34.9263 21.6107 34.3893 21.0737 33.7268 21.0737H31.5674C31.2493 21.0737 30.9442 20.9473 30.7192 20.7223L29.3482 19.3514C28.8798 18.8829 28.1202 18.8829 27.6518 19.3513Z" stroke="#414141"/>
<g filter="url(#filter1_d_24747_543)">
<rect x="4" y="2" width="50" height="50" fill="white"/>
</g>
<path d="M25.4643 25.0714H26.6786M30.3214 29.9286H31.5357M31.5357 24.4643L25.4643 30.5357M27.6518 19.3513L26.2808 20.7223C26.0558 20.9473 25.7507 21.0737 25.4326 21.0737H23.2732C22.6107 21.0737 22.0737 21.6107 22.0737 22.2732V24.4326C22.0737 24.7507 21.9473 25.0558 21.7223 25.2808L20.3514 26.6518C19.8829 27.1202 19.8829 27.8798 20.3513 28.3482L21.7223 29.7192C21.9473 29.9442 22.0737 30.2493 22.0737 30.5674V32.7268C22.0737 33.3893 22.6107 33.9263 23.2732 33.9263H25.4326C25.7507 33.9263 26.0558 34.0527 26.2808 34.2777L27.6518 35.6486C28.1202 36.1171 28.8798 36.1171 29.3482 35.6486L30.7192 34.2777C30.9442 34.0527 31.2493 33.9263 31.5674 33.9263H33.7268C34.3893 33.9263 34.9263 33.3893 34.9263 32.7268V30.5674C34.9263 30.2493 35.0527 29.9442 35.2777 29.7192L36.6486 28.3482C37.1171 27.8798 37.1171 27.1202 36.6486 26.6518L35.2777 25.2808C35.0527 25.0558 34.9263 24.7507 34.9263 24.4326V22.2732C34.9263 21.6107 34.3893 21.0737 33.7268 21.0737H31.5674C31.2493 21.0737 30.9442 20.9473 30.7192 20.7223L29.3482 19.3514C28.8798 18.8829 28.1202 18.8829 27.6518 19.3513Z" stroke="#414141"/>
<defs>
<filter id="filter0_d_24747_543" x="0" y="0" width="58" height="58" filterUnits="userSpaceOnUse" color-interpolation-filters="sRGB">
<feFlood flood-opacity="0" result="BackgroundImageFix"/>
<feColorMatrix in="SourceAlpha" type="matrix" values="0 0 0 0 0 0 0 0 0 0 0 0 0 0 0 0 0 0 127 0" result="hardAlpha"/>
<feOffset dy="2"/>
<feGaussianBlur stdDeviation="2"/>
<feColorMatrix type="matrix" values="0 0 0 0 0 0 0 0 0 0 0 0 0 0 0 0 0 0 0.07 0"/>
<feBlend mode="normal" in2="BackgroundImageFix" result="effect1_dropShadow_24747_543"/>
<feBlend mode="normal" in="SourceGraphic" in2="effect1_dropShadow_24747_543" result="shape"/>
</filter>
<filter id="filter1_d_24747_543" x="0" y="0" width="58" height="58" filterUnits="userSpaceOnUse" color-interpolation-filters="sRGB">
<feFlood flood-opacity="0" result="BackgroundImageFix"/>
<feColorMatrix in="SourceAlpha" type="matrix" values="0 0 0 0 0 0 0 0 0 0 0 0 0 0 0 0 0 0 127 0" result="hardAlpha"/>
<feOffset dy="2"/>
<feGaussianBlur stdDeviation="2"/>
<feColorMatrix type="matrix" values="0 0 0 0 0 0 0 0 0 0 0 0 0 0 0 0 0 0 0.07 0"/>
<feBlend mode="normal" in2="BackgroundImageFix" result="effect1_dropShadow_24747_543"/>
<feBlend mode="normal" in="SourceGraphic" in2="effect1_dropShadow_24747_543" result="shape"/>
</filter>
</defs>
</svg>
