<svg width="58" height="58" viewBox="0 0 58 58" fill="none" xmlns="http://www.w3.org/2000/svg">
<g filter="url(#filter0_d_24747_544)">
<rect x="4" y="2" width="50" height="50" fill="white"/>
</g>
<path fill-rule="evenodd" clip-rule="evenodd" d="M38.7327 25.3617L38.7488 25.3735C39.3351 25.8039 40 26.2946 40 26.9996C40 27.7044 39.3355 28.194 38.7502 28.6253L38.7499 28.6256C38.4113 28.8723 37.9885 29.1842 37.933 29.3908C37.9522 29.7877 38.0635 30.1748 38.2582 30.5213L38.2669 30.5414C38.5617 31.2208 38.8641 31.9178 38.5222 32.506C38.1769 33.1 37.4012 33.187 36.6513 33.2712C36.2637 33.2736 35.8817 33.3642 35.5342 33.5361C35.3619 33.8839 35.271 34.2662 35.2683 34.6543C35.1841 35.4041 35.0865 36.1856 34.4974 36.5251C33.9082 36.8647 33.1985 36.5586 32.5136 36.2602C32.1695 36.066 31.7853 35.9535 31.3908 35.9312C31.1909 35.9827 30.8879 36.3934 30.6399 36.7296L30.6256 36.7489L30.6248 36.75C30.1936 37.3351 29.705 37.9981 28.9996 37.9981C28.294 37.9981 27.8054 37.335 27.3742 36.7498L27.3735 36.7489C27.1258 36.4103 26.8149 35.9876 26.6083 35.9321C26.2117 35.9536 25.8252 36.0648 25.4778 36.2573L25.4608 36.2647C24.7804 36.5608 24.0822 36.8647 23.4931 36.5213C22.8991 36.175 22.8121 35.4003 22.7279 34.6513C22.7262 34.262 22.6352 33.8781 22.462 33.5294C22.1145 33.3564 21.732 33.2651 21.3439 33.2625C20.5949 33.1831 19.8163 33.0875 19.4739 32.4974C19.1315 31.9072 19.4395 31.1975 19.7379 30.5127C19.9326 30.169 20.0453 29.7851 20.067 29.3907C20.0161 29.1902 19.6021 28.885 19.2662 28.6374L19.2662 28.6374L19.2501 28.6255C18.6638 28.1951 18 27.7054 18 26.9995C18 26.2936 18.6638 25.8039 19.2491 25.3735C19.5877 25.1267 20.0105 24.8149 20.066 24.6083C20.0449 24.2126 19.9323 23.8273 19.7369 23.4825C19.4347 22.7968 19.1314 22.087 19.4767 21.493C19.822 20.899 20.5977 20.812 21.3476 20.7278C21.7341 20.7258 22.115 20.6363 22.4619 20.4658C22.6341 20.118 22.725 19.7357 22.7278 19.3476C22.812 18.594 22.9105 17.8135 23.4987 17.473C24.0869 17.1324 24.7966 17.4347 25.4853 17.7379C25.83 17.9307 26.2139 18.0432 26.6082 18.0669C26.808 18.0153 27.111 17.6047 27.3591 17.2685L27.3734 17.2491L27.3742 17.248C27.8054 16.6629 28.2939 16 28.9994 16C29.7017 16 30.1891 16.6571 30.6217 17.2403L30.6283 17.2491C30.876 17.5877 31.1869 18.0105 31.3935 18.066C31.7881 18.0441 32.1724 17.9316 32.5163 17.7369C33.2011 17.4347 33.9118 17.1315 34.5058 17.4777C35.0998 17.824 35.1868 18.5988 35.271 19.3477C35.2727 19.7371 35.3636 20.1209 35.5369 20.4696C35.8844 20.6426 36.2668 20.7339 36.655 20.7365C37.4039 20.8159 38.1825 20.9115 38.5249 21.5017C38.8673 22.0918 38.5594 22.8015 38.261 23.4864C38.0662 23.83 37.9536 24.2139 37.9319 24.6083C37.9827 24.8088 38.3968 25.1141 38.7327 25.3617ZM25.7474 29.1994C25.8377 29.3198 25.9795 29.3907 26.13 29.3907C26.1814 29.3907 26.2324 29.3823 26.2811 29.3658C26.4763 29.3008 26.6081 29.1182 26.6083 28.9124V25.0865C26.6083 24.8224 26.3941 24.6083 26.13 24.6083C25.8659 24.6083 25.6518 24.8224 25.6518 25.0865V27.4777L23.6432 24.7996C23.5529 24.6792 23.4111 24.6083 23.2606 24.6083C22.9965 24.6083 22.7823 24.8224 22.7823 25.0865V28.9124C22.7823 29.1765 22.9965 29.3907 23.2606 29.3907C23.5247 29.3907 23.7388 29.1765 23.7388 28.9124V26.5213L25.7474 29.1994ZM29.9559 29.3907H28.043C27.7788 29.3907 27.5647 29.1765 27.5647 28.9124V26.9995V25.0865C27.5647 24.8224 27.7788 24.6083 28.043 24.6083H29.9559C30.22 24.6083 30.4342 24.8224 30.4342 25.0865C30.4342 25.3507 30.22 25.5648 29.9559 25.5648H28.5212V26.5212H29.9559C30.22 26.5212 30.4342 26.7353 30.4342 26.9995C30.4342 27.2636 30.22 27.4777 29.9559 27.4777H28.5212V28.4342H29.9559C30.22 28.4342 30.4342 28.6483 30.4342 28.9125C30.4342 29.1766 30.22 29.3907 29.9559 29.3907ZM34.2839 29.0636C34.349 29.2591 34.5321 29.3909 34.7382 29.3907L34.7574 29.3897C34.9698 29.3817 35.1514 29.2344 35.2031 29.0282L36.1596 25.2023C36.2235 24.9458 36.0674 24.6861 35.811 24.6222C35.5545 24.5583 35.2948 24.7144 35.2308 24.9708L34.6732 27.2032L34.2361 25.8919C34.1862 25.7819 34.0981 25.6937 33.9881 25.6438C33.7374 25.5302 33.4421 25.6412 33.3284 25.8919L32.8913 27.2032L32.3337 24.9708C32.2698 24.7144 32.0101 24.5583 31.7536 24.6222C31.4972 24.6861 31.341 24.9459 31.405 25.2023L32.3614 29.0282C32.4131 29.2344 32.5947 29.3817 32.8071 29.3897C33.0218 29.4058 33.2185 29.2699 33.2796 29.0636L33.7818 27.5552L34.2839 29.0636Z" fill="#414141"/>
<defs>
<filter id="filter0_d_24747_544" x="0" y="0" width="58" height="58" filterUnits="userSpaceOnUse" color-interpolation-filters="sRGB">
<feFlood flood-opacity="0" result="BackgroundImageFix"/>
<feColorMatrix in="SourceAlpha" type="matrix" values="0 0 0 0 0 0 0 0 0 0 0 0 0 0 0 0 0 0 127 0" result="hardAlpha"/>
<feOffset dy="2"/>
<feGaussianBlur stdDeviation="2"/>
<feColorMatrix type="matrix" values="0 0 0 0 0 0 0 0 0 0 0 0 0 0 0 0 0 0 0.07 0"/>
<feBlend mode="normal" in2="BackgroundImageFix" result="effect1_dropShadow_24747_544"/>
<feBlend mode="normal" in="SourceGraphic" in2="effect1_dropShadow_24747_544" result="shape"/>
</filter>
</defs>
</svg>
